<svg width="1451" height="198" viewBox="0 0 1451 198" fill="none" xmlns="http://www.w3.org/2000/svg">
<ellipse cx="98.8202" cy="105.385" rx="74.0321" ry="33.524" fill="#3F65F3"/>
<rect x="47.1372" y="49.5114" width="47.4923" height="16.762" rx="8.38099" fill="#3F65F3"/>
<path d="M103.011 57.8923C103.011 53.2637 106.764 49.5114 111.392 49.5114H142.123C146.751 49.5114 150.504 53.2637 150.504 57.8923V57.8923C150.504 62.521 146.751 66.2733 142.123 66.2733H111.392C106.764 66.2733 103.011 62.521 103.011 57.8923V57.8923Z" fill="#3F65F3"/>
<rect x="47.1396" y="147.291" width="47.4923" height="16.762" rx="8.38099" fill="#3F65F3"/>
<rect x="196.772" y="81.9552" width="47.4923" height="16.762" rx="8.38099" transform="rotate(89.7254 196.772 81.9552)" fill="#3F65F3"/>
<rect x="16.7617" y="81.9552" width="47.4923" height="16.762" rx="8.38099" transform="rotate(89.7254 16.7617 81.9552)" fill="#3F65F3"/>
<rect x="103.013" y="147.291" width="47.4923" height="16.762" rx="8.38099" fill="#3F65F3"/>
<path d="M345.674 161H320.065L312.644 137.792H275.54L268.191 161H242.728L280.705 56.6709H308.57L345.674 161ZM307.26 119.749L296.056 84.6812C295.232 82.062 294.65 78.9336 294.31 75.2959H293.728C293.486 78.3516 292.879 81.383 291.909 84.3901L280.56 119.749H307.26ZM405.042 107.235C402.277 105.731 399.051 104.979 395.365 104.979C390.369 104.979 386.465 106.823 383.652 110.509C380.839 114.146 379.432 119.118 379.432 125.423V161H356.442V86.5H379.432V100.323H379.723C383.361 90.2347 389.909 85.1904 399.367 85.1904C401.792 85.1904 403.683 85.4814 405.042 86.0635V107.235ZM450.731 162.819C438.314 162.819 428.541 159.351 421.411 152.415C414.33 145.431 410.789 135.973 410.789 124.041C410.789 111.721 414.475 102.094 421.848 95.1577C429.22 88.1733 439.187 84.6812 451.75 84.6812C464.118 84.6812 473.818 88.1733 480.851 95.1577C487.884 102.094 491.4 111.285 491.4 122.731C491.4 135.1 487.763 144.873 480.487 152.051C473.26 159.23 463.342 162.819 450.731 162.819ZM451.313 102.288C445.881 102.288 441.661 104.155 438.654 107.89C435.647 111.624 434.143 116.911 434.143 123.75C434.143 138.058 439.915 145.212 451.458 145.212C462.469 145.212 467.974 137.864 467.974 123.168C467.974 109.248 462.42 102.288 451.313 102.288ZM577.104 161H554.187V149.65H553.823C548.148 158.429 540.558 162.819 531.051 162.819C513.784 162.819 505.151 152.367 505.151 131.462V86.5H528.068V129.425C528.068 139.95 532.24 145.212 540.582 145.212C544.705 145.212 548.003 143.782 550.477 140.92C552.95 138.01 554.187 134.081 554.187 129.134V86.5H577.104V161ZM668.483 161H645.566V119.603C645.566 108.059 641.443 102.288 633.198 102.288C629.221 102.288 625.947 103.815 623.376 106.871C620.805 109.927 619.52 113.807 619.52 118.512V161H596.53V86.5H619.52V98.2861H619.811C625.292 89.2161 633.271 84.6812 643.747 84.6812C660.238 84.6812 668.483 94.9152 668.483 115.383V161ZM759.644 161H736.654V150.742H736.363C731.125 158.793 723.437 162.819 713.3 162.819C703.987 162.819 696.494 159.545 690.819 152.997C685.144 146.401 682.307 137.209 682.307 125.423C682.307 113.104 685.435 103.233 691.692 95.8125C697.949 88.3916 706.146 84.6812 716.283 84.6812C725.886 84.6812 732.58 88.1248 736.363 95.0122H736.654V50.7051H759.644V161ZM737.09 124.769V119.167C737.09 114.316 735.684 110.291 732.871 107.089C730.057 103.888 726.396 102.288 721.885 102.288C716.792 102.288 712.815 104.3 709.953 108.326C707.091 112.303 705.661 117.784 705.661 124.769C705.661 131.316 707.043 136.361 709.808 139.901C712.572 143.442 716.404 145.212 721.303 145.212C725.959 145.212 729.742 143.345 732.652 139.61C735.611 135.876 737.09 130.928 737.09 124.769ZM865.21 160.127C861.815 161.922 856.698 162.819 849.859 162.819C833.659 162.819 825.559 154.404 825.559 137.573V103.452H813.482V86.5H825.559V70.4214L848.477 63.8735V86.5H865.21V103.452H848.477V133.572C848.477 141.332 851.556 145.212 857.716 145.212C860.141 145.212 862.639 144.509 865.21 143.103V160.127ZM949.75 161H926.833V118.657C926.833 107.744 922.855 102.288 914.901 102.288C910.827 102.288 907.528 103.815 905.006 106.871C902.484 109.927 901.223 113.807 901.223 118.512V161H878.233V50.7051H901.223V97.5586H901.514C907.14 88.9736 914.78 84.6812 924.432 84.6812C941.311 84.6812 949.75 94.8667 949.75 115.238V161ZM1034.94 130.298H986.345C987.121 141.114 993.936 146.522 1006.79 146.522C1014.99 146.522 1022.19 144.582 1028.4 140.702V157.29C1021.51 160.976 1012.56 162.819 1001.55 162.819C989.522 162.819 980.185 159.496 973.541 152.852C966.896 146.158 963.573 136.846 963.573 124.914C963.573 112.546 967.162 102.748 974.341 95.5215C981.519 88.2946 990.347 84.6812 1000.82 84.6812C1011.69 84.6812 1020.08 87.9066 1026 94.3574C1031.96 100.808 1034.94 109.563 1034.94 120.622V130.298ZM1013.63 116.184C1013.63 105.513 1009.31 100.178 1000.68 100.178C996.992 100.178 993.79 101.706 991.074 104.761C988.407 107.817 986.782 111.624 986.2 116.184H1013.63ZM1165.32 75.8052H1135.56V161H1111.99V75.8052H1082.38V56.6709H1165.32V75.8052ZM1226.43 161H1204.68V150.305H1204.39C1199.39 158.648 1192 162.819 1182.2 162.819C1174.97 162.819 1169.27 160.782 1165.1 156.708C1160.98 152.585 1158.92 147.104 1158.92 140.265C1158.92 125.811 1167.48 117.469 1184.6 115.238L1204.83 112.546C1204.83 104.397 1200.41 100.323 1191.58 100.323C1182.71 100.323 1174.27 102.967 1166.27 108.253V90.938C1169.47 89.2889 1173.83 87.8338 1179.36 86.5728C1184.94 85.3117 1190.01 84.6812 1194.57 84.6812C1215.81 84.6812 1226.43 95.279 1226.43 116.475V161ZM1204.83 130.734V125.714L1191.29 127.46C1183.82 128.431 1180.09 131.801 1180.09 137.573C1180.09 140.192 1180.99 142.351 1182.78 144.048C1184.62 145.697 1187.1 146.522 1190.2 146.522C1194.52 146.522 1198.03 145.043 1200.75 142.084C1203.47 139.077 1204.83 135.294 1204.83 130.734ZM1267.9 152.342H1267.61V161H1244.62V50.7051H1267.61V97.7041H1267.9C1273.58 89.0221 1281.65 84.6812 1292.13 84.6812C1301.73 84.6812 1309.13 87.9793 1314.32 94.5757C1319.51 101.172 1322.1 110.194 1322.1 121.64C1322.1 134.057 1319.07 144.024 1313.01 151.542C1306.95 159.06 1298.85 162.819 1288.71 162.819C1279.54 162.819 1272.61 159.327 1267.9 152.342ZM1267.25 120.913V128.552C1267.25 133.354 1268.63 137.331 1271.4 140.483C1274.16 143.636 1277.7 145.212 1282.02 145.212C1287.26 145.212 1291.31 143.2 1294.17 139.174C1297.08 135.1 1298.53 129.352 1298.53 121.931C1298.53 115.771 1297.2 110.97 1294.53 107.526C1291.91 104.034 1288.15 102.288 1283.25 102.288C1278.65 102.288 1274.81 104.009 1271.76 107.453C1268.75 110.897 1267.25 115.383 1267.25 120.913ZM1360.01 161H1337.02V50.7051H1360.01V161ZM1446.3 130.298H1397.7C1398.47 141.114 1405.29 146.522 1418.14 146.522C1426.34 146.522 1433.54 144.582 1439.75 140.702V157.29C1432.86 160.976 1423.91 162.819 1412.9 162.819C1400.87 162.819 1391.54 159.496 1384.89 152.852C1378.25 146.158 1374.92 136.846 1374.92 124.914C1374.92 112.546 1378.51 102.748 1385.69 95.5215C1392.87 88.2946 1401.7 84.6812 1412.17 84.6812C1423.04 84.6812 1431.43 87.9066 1437.35 94.3574C1443.31 100.808 1446.3 109.563 1446.3 120.622V130.298ZM1424.98 116.184C1424.98 105.513 1420.66 100.178 1412.03 100.178C1408.34 100.178 1405.14 101.706 1402.42 104.761C1399.76 107.817 1398.13 111.624 1397.55 116.184H1424.98Z" fill="#3F65F3"/>
</svg>
